# xmcd CD database file
#
# Track frame offsets:
#	150
#	16487
#	31564
#
# Disc length: 585 seconds
#
# Revision: 0
# Processed by: cddbd v1.5.2PL0 Copyright (c) Steve Scherf et al.
# Submitted via: CDex 1.77
#
DISCID=14024703
DTITLE=Skyler Day - Promo Demo 3 song EP
DYEAR=2007
DGENRE=Country
TTITLE0=Last September
TTITLE1=West Coast Dreams
TTITLE2=Cheer Up The Moon
EXTD=YEAR: 2007
EXTT0=
EXTT1=
EXTT2=
PLAYORDER=
